<svg width="130" height="126" viewBox="0 0 130 126" fill="none" xmlns="http://www.w3.org/2000/svg">
<path d="M62.4 5.01855C43.7632 5.01855 28.6 25.8265 28.6 51.4063C28.6 64.6208 32.6689 76.5202 39.1575 84.9634C38.9129 86.2308 38.9606 87.5347 39.2969 88.7824C39.6333 90.03 40.2502 91.191 41.1037 92.1827C41.9573 93.1744 43.0266 93.9726 44.2357 94.5206C45.4449 95.0686 46.7642 95.3529 48.1 95.3534C50.5135 95.3534 52.8281 94.4281 54.5347 92.7811C56.2413 91.134 57.2 88.9002 57.2 86.5709C57.2 84.2416 56.2413 82.0077 54.5347 80.3607C52.8281 78.7136 50.5135 77.7883 48.1 77.7883C47.6047 77.7919 47.1105 77.8345 46.6223 77.9157C41.9733 71.2321 39 61.7576 39 51.4063C39 31.7008 49.7172 15.0558 62.4 15.0558C73.1094 15.0558 82.3918 26.9436 85.0282 42.5013C88.7253 43.5251 92.4084 44.9101 96.0172 46.5838C94.2544 23.2623 79.8512 5.01855 62.4 5.01855ZM58.5 42.6581C56.0866 42.6581 53.7719 43.5834 52.0654 45.2304C50.3588 46.8775 49.4 49.1114 49.4 51.4406C49.4 53.7699 50.3588 56.0038 52.0654 57.6509C53.7719 59.2979 56.0866 60.2232 58.5 60.2232C60.2011 60.2223 61.8679 59.7613 63.3112 58.8924C64.7546 58.0235 65.9167 56.7816 66.6656 55.3075C75.115 54.7968 84.8799 57.3127 93.8946 62.5267C111.731 72.8474 121.43 90.8945 115.07 101.935C112.98 105.564 109.214 108.173 104.178 109.473C96.9264 111.345 88.034 110.393 79.2746 106.993C76.4952 109.488 73.4393 111.829 70.1035 113.982C78.7563 118.2 87.9073 120.437 96.3625 120.437C100.029 120.437 103.567 120.02 106.869 119.167C114.687 117.147 120.668 112.874 124.16 106.812C133.479 90.6294 122.533 67.3955 99.2418 53.9205C88.1594 47.5057 75.8824 44.5496 65.0914 45.4026C64.243 44.5377 63.2211 43.8484 62.088 43.3766C60.9549 42.9047 59.7341 42.6603 58.5 42.6581ZM23.8164 58.5275C5.40584 72.2559 -2.49065 92.3408 5.84495 106.812C9.33675 112.874 15.3178 117.147 23.136 119.167C26.4406 120.02 29.9714 120.437 33.6426 120.437C43.5226 120.437 54.3661 117.409 64.2383 111.698C75.2827 105.308 83.449 96.7178 88.0801 87.7324C92.633 87.2538 96.2 83.5623 96.2 79.043C96.2 74.2 92.118 70.2604 87.1 70.2604C82.082 70.2604 78 74.2 78 79.043C78 80.3986 78.3434 81.6693 78.9141 82.8167C75.1599 90.2814 68.155 97.7257 58.891 103.087C47.7214 109.551 35.3591 111.94 25.8223 109.473C20.7887 108.173 17.0252 105.564 14.9348 101.935C9.9064 93.2031 14.9404 80.1056 26.0762 69.8977C25.0076 66.2843 24.2428 62.4796 23.8164 58.5275Z" fill="black"/>
</svg>
